<?xml version="1.0" ?><svg height="400px" version="1.1" viewBox="0 0 400 400" width="400px" xmlns="http://www.w3.org/2000/svg" xmlns:xlink="http://www.w3.org/1999/xlink"><title/><desc/><defs><path d="M40,150.002783 C40,138.955551 48.9634657,130 60.0067744,130 L99.9932256,130 C111.042662,130 127.169871,124.622597 135.99692,118.00231 L184.00308,81.9976899 C192.837935,75.3715487 200,78.9497885 200,89.9969141 L200,310.003086 C200,321.047077 192.830129,324.622597 184.00308,318.00231 L135.99692,281.99769 C127.162065,275.371549 111.036534,270 99.9932256,270 L60.0067744,270 C48.957338,270 40,261.042775 40,249.997217 L40,150.002783 L40,150.002783 Z" id="path-1"/><filter filterUnits="objectBoundingBox" height="200%" id="filter-2" width="200%" x="-50%" y="-50%"><feOffset dx="0" dy="4" in="SourceAlpha" result="shadowOffsetOuter1"/><feGaussianBlur in="shadowOffsetOuter1" result="shadowBlurOuter1" stdDeviation="2"/><feColorMatrix in="shadowBlurOuter1" type="matrix" values="0 0 0 0 0   0 0 0 0 0   0 0 0 0 0  0 0 0 0.5 0"/></filter><path d="M228,264 C263.346224,264 292,235.346224 292,200 C292,164.653776 263.346224,136 228,136 C223.581722,136 220,139.581722 220,144 C220,148.418278 223.581722,152 228,152 C228.198534,152 228.395379,151.992768 228.590286,151.978553 C254.841756,152.294744 276.025,173.673566 276.025,200 C276.025,226.326434 254.841756,247.705256 228.590286,248.021447 C228.395379,248.007232 228.198534,248 228,248 C223.581722,248 220,251.581722 220,256 C220,260.418278 223.581722,264 228,264 L228,264 Z" id="path-3"/><filter filterUnits="objectBoundingBox" height="200%" id="filter-4" width="200%" x="-50%" y="-50%"><feOffset dx="0" dy="4" in="SourceAlpha" result="shadowOffsetOuter1"/><feGaussianBlur in="shadowOffsetOuter1" result="shadowBlurOuter1" stdDeviation="2"/><feColorMatrix in="shadowBlurOuter1" type="matrix" values="0 0 0 0 0   0 0 0 0 0   0 0 0 0 0  0 0 0 0.5 0"/></filter><path d="M240,320 C306.27417,320 360,266.27417 360,200 C360,133.725834 306.274176,80.0000057 240.000011,80 C234.477153,80 230,84.4771525 230,90 C230,95.5228475 234.477153,100 240,100 C240.221156,100 240.440635,99.9928208 240.658218,99.9786828 C295.596708,100.332724 340.023438,144.978153 340.023438,200 C340.023438,255.021847 295.596708,299.667276 240.658218,300.021317 C240.440635,300.007179 240.221156,300 240,300 C234.477153,300 230,304.477153 230,310 C230,315.522847 234.477153,320 240,320 L240,320 Z" id="path-5"/><filter filterUnits="objectBoundingBox" height="200%" id="filter-6" width="200%" x="-50%" y="-50%"><feOffset dx="0" dy="4" in="SourceAlpha" result="shadowOffsetOuter1"/><feGaussianBlur in="shadowOffsetOuter1" result="shadowBlurOuter1" stdDeviation="2"/><feColorMatrix in="shadowBlurOuter1" type="matrix" values="0 0 0 0 0   0 0 0 0 0   0 0 0 0 0  0 0 0 0.5 0"/></filter></defs><g fill="none" fill-rule="evenodd" id="Page-1" stroke="none" stroke-width="1"><g id="sound"><path d="M200,400 C310.45695,400 400,310.45695 400,200 C400,89.54305 310.45695,0 200,0 C89.54305,0 0,89.54305 0,200 C0,310.45695 89.54305,400 200,400 Z" fill="#AAD8B0" id="Oval-6"/><g id="Combined-Shape"><use fill="black" fill-opacity="1" filter="url(#filter-2)" xlink:href="#path-1"/><use fill="#697F9B" fill-rule="evenodd" xlink:href="#path-1"/></g><g id="Combined-Shape"><use fill="black" fill-opacity="1" filter="url(#filter-4)" xlink:href="#path-3"/><use fill="#67ADD5" fill-rule="evenodd" xlink:href="#path-3"/></g><g id="Combined-Shape-Copy"><use fill="black" fill-opacity="1" filter="url(#filter-6)" xlink:href="#path-5"/><use fill="#67ADD5" fill-rule="evenodd" xlink:href="#path-5"/></g></g></g></svg>